HIERARCHY
ROOT Hips
{
  OFFSET 54.6972 84.4813 6.26461
  CHANNELS 6 Xposition Yposition Zposition Zrotation Xrotation Yrotation
  JOINT spine
  {
    OFFSET 0 5.95438 0.342407
    CHANNELS 3 Zrotation Xrotation Yrotation
    JOINT spine1
    {
      OFFSET 0 8.85602 0
      CHANNELS 3 Zrotation Xrotation Yrotation
      JOINT spine2
      {
        OFFSET 0 8.48567 0
        CHANNELS 3 Zrotation Xrotation Yrotation
        JOINT Neck
        {
          OFFSET 0 21.7863 1.0387
          CHANNELS 3 Zrotation Xrotation Yrotation
          JOINT Head
          {
            OFFSET 0 6.5822 0
            CHANNELS 3 Zrotation Xrotation Yrotation
            End Site
            {
              OFFSET 0 15.9326 -5.25436
            }
          }
        }
        JOINT RightShoulder
        {
          OFFSET -3.57307 9.16386 -0.497525
          CHANNELS 3 Zrotation Xrotation Yrotation
          JOINT RightArm
          {
            OFFSET 0 12.0192 0
            CHANNELS 3 Zrotation Xrotation Yrotation
            JOINT RightArmRoll
            {
              OFFSET 0 6.06754 0
              CHANNELS 3 Zrotation Xrotation Yrotation
              JOINT RightForeArm
              {
                OFFSET 0 17.6726 0
                CHANNELS 3 Zrotation Xrotation Yrotation
                JOINT RightForeArmRoll
                {
                  OFFSET 0 6.80872 0
                  CHANNELS 3 Zrotation Xrotation Yrotation
                  JOINT RightHand
                  {
                    OFFSET 0 13.6636 0
                    CHANNELS 3 Zrotation Xrotation Yrotation
                    End Site
                    {
                      OFFSET 0 0 0
                    }
                  }
                }
              }
            }
          }
        }
        JOINT LeftShoulder
        {
          OFFSET 3.57307 9.16386 -0.497525
          CHANNELS 3 Zrotation Xrotation Yrotation
          JOINT LeftArm
          {
            OFFSET 0 12.0192 0
            CHANNELS 3 Zrotation Xrotation Yrotation
            JOINT LeftArmRoll
            {
              OFFSET 0 6.06755 0
              CHANNELS 3 Zrotation Xrotation Yrotation
              JOINT LeftForeArm
              {
                OFFSET 0 17.6726 0
                CHANNELS 3 Zrotation Xrotation Yrotation
                JOINT LeftForeArmRoll
                {
                  OFFSET 0 6.80872 0
                  CHANNELS 3 Zrotation Xrotation Yrotation
                  JOINT LeftHand
                  {
                    OFFSET 0 13.6636 0
                    CHANNELS 3 Zrotation Xrotation Yrotation
                    End Site
                    {
                      OFFSET 0 0 0
                    }
                  }
                }
              }
            }
          }
        }
      }
    }
  }
  JOINT RightUpLeg
  {
    OFFSET -5.27774 -0.967797 -0.811858
    CHANNELS 3 Zrotation Xrotation Yrotation
    JOINT RightUpLegRoll
    {
      OFFSET 0 16.0214 0
      CHANNELS 3 Zrotation Xrotation Yrotation
      JOINT RightLeg
      {
        OFFSET 0 -19.8401 0
        CHANNELS 3 Zrotation Xrotation Yrotation
        JOINT RightLegRoll
        {
          OFFSET 0 19.905 0
          CHANNELS 3 Zrotation Xrotation Yrotation
          JOINT RightFoot
          {
            OFFSET 0 16.5675 0
            CHANNELS 3 Zrotation Xrotation Yrotation
            JOINT RightToeBase
            {
              OFFSET 0 13.8496 0
              CHANNELS 3 Zrotation Xrotation Yrotation
              End Site
              {
                OFFSET 0.00587034 6.70728 -0.773117
              }
            }
          }
        }
      }
    }
  }
  JOINT LeftUpLeg
  {
    OFFSET 5.27774 -0.967797 -0.811858
    CHANNELS 3 Zrotation Xrotation Yrotation
    JOINT LeftUpLegRoll
    {
      OFFSET 0 16.0215 0
      CHANNELS 3 Zrotation Xrotation Yrotation
      JOINT LeftLeg
      {
        OFFSET 0 19.84 0
        CHANNELS 3 Zrotation Xrotation Yrotation
        JOINT LeftLegRoll
        {
          OFFSET 0 20.089 0
          CHANNELS 3 Zrotation Xrotation Yrotation
          JOINT LeftFoot
          {
            OFFSET 0 16.3835 0
            CHANNELS 3 Zrotation Xrotation Yrotation
            JOINT LeftToeBase
            {
              OFFSET 0 13.8496 0
              CHANNELS 3 Zrotation Xrotation Yrotation
              End Site
              {
                OFFSET -0.0263083 6.70728 -0.773116
              }
            }
          }
        }
      }
    }
  }
}
MOTION
Frames: 10
Frame Time: 0.00208333
54.1447 84.3598 3.50123 1.2497 -8.84569 1.05055 0.249171 -0.849142 0.0844906 0.499382 2.30483 0.151654 0.498053 3.94986 0.142342 -9.37024 13.8074 -0.132238 11.5266 2.44961 -2.68574 67.7269 1.76079 -0.0731078 110.414 16.2088 -10.6784 1.76556e-031 -3.18055e-015 3.18055e-015 -3.64832 -0.0275543 -1.99249 1.66627e-007 -8.31561e-007 -3.01161 8.03009 -4.9514 0.697638 -70.5044 -1.1748 1.87164 -112.764 16.9256 12.1021 3.9815e-006 1.45052e-006 2.88809e-007 3.63755 -0.0288877 1.99263 2.77723e-006 -5.32227e-006 3.0116 -8.03009 -4.95138 -0.697626 177.327 -1.43534 4.61358 -180 7.01525e-015 178.833 176.994 11.9702 179.937 3.74321e-006 7.72164e-007 0.186149 -20.131 69.6757 21.0478 8.13649 25.2327 -3.48773 -179.841 -2.13457 0.262813 4.54188e-006 -4.6773e-006 -1.17852 -1.9107 -10.4038 0.12667 -3.27435e-006 -2.08825e-006 -0.159663 19.4506 68.9935 -20.3684 -8.13649 25.2327 3.48774 
54.1093 84.3689 3.5332 1.25038 -8.87159 1.03998 0.247364 -0.842547 0.0844378 0.496097 2.31802 0.151681 0.494765 3.96305 0.142463 -9.34651 13.7893 -0.132023 11.4967 2.4623 -2.679 67.7708 1.77681 -0.0707916 110.386 16.2318 -10.6588 9.54166e-015 -3.18055e-015 4.77083e-015 -3.64832 -0.0275543 -1.99249 1.66627e-007 -8.31561e-007 -3.01161 8.03009 -4.9514 0.697638 -70.498 -1.18348 1.87568 -112.743 16.9284 12.084 3.9815e-006 1.45052e-006 2.88809e-007 3.63755 -0.0288877 1.99263 2.77723e-006 -5.32227e-006 3.0116 -8.03009 -4.95138 -0.697626 177.328 -1.46245 4.61547 -180 7.01525e-015 178.832 176.997 11.9696 179.936 3.74321e-006 7.72164e-007 0.186206 -20.129 69.6736 21.0457 8.13649 25.2327 -3.48773 -179.843 -2.17088 0.26329 4.54188e-006 -4.6773e-006 -1.17838 -1.90714 -10.3926 0.127228 -3.27435e-006 -2.08825e-006 -0.159466 19.4492 68.992 -20.367 -8.13649 25.2327 3.48774 
54.1189 84.3645 3.52435 1.25091 -8.89819 1.02865 0.24552 -0.835819 0.0843838 0.492762 2.33147 0.151707 0.491427 3.9765 0.142586 -9.32235 13.7713 -0.131555 11.4661 2.47526 -2.67193 67.8157 1.79362 -0.0681927 110.356 16.2543 -10.6382 2.94201e-014 1.27222e-014 1.27222e-014 -3.64832 -0.0275543 -1.99249 1.66627e-007 -8.31561e-007 -3.01161 8.03009 -4.9514 0.697638 -70.4912 -1.19252 1.87988 -112.723 16.9307 12.0659 3.9815e-006 1.45052e-006 2.88809e-007 3.63755 -0.0288877 1.99263 2.77723e-006 -5.32227e-006 3.0116 -8.03009 -4.95138 -0.697626 177.328 -1.48947 4.6173 -180 7.01525e-015 178.832 176.999 11.9706 179.935 3.74321e-006 7.72164e-007 0.186292 -20.1277 69.6723 21.0443 8.13649 25.2327 -3.48773 -179.845 -2.2097 0.263145 4.54188e-006 -4.6773e-006 -1.17818 -1.90427 -10.3783 0.127679 -3.27435e-006 -2.08825e-006 -0.159166 19.4467 68.9893 -20.3644 -8.13649 25.2327 3.48774 
54.0578 84.3753 3.62859 1.25133 -8.92529 1.0168 0.24365 -0.828997 0.084329 0.489391 2.34511 0.151733 0.488054 3.99015 0.142709 -9.29788 13.7534 -0.13091 11.4351 2.4884 -2.66463 67.8612 1.81099 -0.0653959 110.326 16.2765 -10.617 3.18055e-015 3.18055e-015 1.59028e-015 -3.64832 -0.0275543 -1.99249 1.66627e-007 -8.31561e-007 -3.01161 8.03009 -4.9514 0.697638 -70.4841 -1.20182 1.88419 -112.703 16.9326 12.0476 3.9815e-006 1.45052e-006 2.88809e-007 3.63755 -0.0288877 1.99263 2.77723e-006 -5.32227e-006 3.0116 -8.03009 -4.95138 -0.697626 177.329 -1.51643 4.61909 -180 7.01525e-015 178.831 177.002 11.9728 179.934 3.74321e-006 7.72164e-007 0.186397 -20.1268 69.6714 21.0434 8.13649 25.2327 -3.48773 -179.846 -2.25028 0.262562 4.54188e-006 -4.6773e-006 -1.17796 -1.90189 -10.3619 0.128057 -3.27435e-006 -2.08825e-006 -0.158796 19.4434 68.9857 -20.361 -8.13649 25.2327 3.48774 
54.0714 84.375 3.60409 1.25167 -8.95268 1.00465 0.241766 -0.822122 0.0842737 0.486 2.35886 0.151759 0.484661 4.00389 0.142832 -9.27324 13.7355 -0.130164 11.4038 2.50165 -2.65719 67.9071 1.82868 -0.062486 110.296 16.2985 -10.5954 1.59028e-014 6.36111e-015 9.54166e-015 -3.64832 -0.0275543 -1.99249 1.66627e-007 -8.31561e-007 -3.01161 8.03009 -4.9514 0.697638 -70.4769 -1.21127 1.88857 -112.682 16.9344 12.0293 3.9815e-006 1.45052e-006 2.88809e-007 3.63755 -0.0288877 1.99263 2.77723e-006 -5.32227e-006 3.0116 -8.03009 -4.95138 -0.697626 177.329 -1.54335 4.62085 -180 7.01525e-015 178.831 177.004 11.9757 179.933 3.74321e-006 7.72164e-007 0.186513 -20.1263 69.6708 21.0428 8.13649 25.2327 -3.48773 -179.848 -2.29187 0.261731 4.54188e-006 -4.6773e-006 -1.17772 -1.89979 -10.3443 0.128392 -3.27435e-006 -2.08825e-006 -0.158384 19.4396 68.9815 -20.357 -8.13649 25.2327 3.48774 
54.1234 84.3696 3.52376 1.25199 -8.98014 0.99242 0.239878 -0.815233 0.0842183 0.482604 2.37263 0.151785 0.481262 4.01767 0.142956 -9.24856 13.7177 -0.129393 11.3724 2.51492 -2.64972 67.9531 1.84645 -0.0595478 110.265 16.3204 -10.5737 -3.97569e-015 9.54166e-015 -1.59028e-015 -3.64832 -0.0275543 -1.99249 1.66627e-007 -8.31561e-007 -3.01161 8.03009 -4.9514 0.697638 -70.4697 -1.22075 1.89296 -112.662 16.9361 12.011 3.9815e-006 1.45052e-006 2.88809e-007 3.63755 -0.0288877 1.99263 2.77723e-006 -5.32227e-006 3.0116 -8.03009 -4.95138 -0.697626 177.33 -1.57026 4.6226 -180 7.01525e-015 178.83 177.007 11.9787 179.932 3.74321e-006 7.72164e-007 0.186632 -20.1257 69.6703 21.0422 8.13649 25.2327 -3.48773 -179.849 -2.33371 0.260837 4.54188e-006 -4.6773e-006 -1.17748 -1.89776 -10.3264 0.128717 -3.27435e-006 -2.08825e-006 -0.157963 19.4356 68.9773 -20.353 -8.13649 25.2327 3.48774 
54.0984 84.3734 3.56193 1.25233 -9.00746 0.980339 0.237998 -0.808372 0.0841632 0.479218 2.38635 0.15181 0.477874 4.03139 0.14308 -9.22396 13.6998 -0.128673 11.3411 2.52814 -2.64232 67.9989 1.86405 -0.056666 110.235 16.3425 -10.5522 -7.95139e-015 3.18055e-015 -0 -3.64832 -0.0275543 -1.99249 1.66627e-007 -8.31561e-007 -3.01161 8.03009 -4.9514 0.697638 -70.4625 -1.23015 1.89733 -112.642 16.9379 11.9928 3.9815e-006 1.45052e-006 2.88809e-007 3.63755 -0.0288877 1.99263 2.77723e-006 -5.32227e-006 3.0116 -8.03009 -4.95138 -0.697626 177.33 -1.59718 4.62437 -180 7.01525e-015 178.83 177.009 11.9814 179.931 3.74321e-006 7.72164e-007 0.186745 -20.1251 69.6697 21.0415 8.13649 25.2327 -3.48773 -179.851 -2.37505 0.260068 4.54188e-006 -4.6773e-006 -1.17725 -1.89559 -10.3091 0.129063 -3.27435e-006 -2.08825e-006 -0.157562 19.432 68.9733 -20.3492 -8.13649 25.2327 3.48774 
54.1043 84.3757 3.5494 1.25272 -9.03442 0.968631 0.236136 -0.801576 0.0841086 0.475858 2.39994 0.151836 0.474511 4.04498 0.143203 -9.19958 13.6819 -0.128079 11.3102 2.54123 -2.63508 68.0442 1.88127 -0.0539256 110.205 16.3648 -10.5311 1.11319e-014 3.18055e-015 7.95139e-015 -3.64832 -0.0275543 -1.99249 1.66627e-007 -8.31561e-007 -3.01161 8.03009 -4.9514 0.697638 -70.4556 -1.23938 1.90161 -112.622 16.94 11.9745 3.9815e-006 1.45052e-006 2.88809e-007 3.63755 -0.0288877 1.99263 2.77723e-006 -5.32227e-006 3.0116 -8.03009 -4.95138 -0.697626 177.331 -1.62416 4.62617 -180 7.01524e-015 178.829 177.012 11.9833 179.93 3.74321e-006 7.72164e-007 0.186845 -20.1241 69.6687 21.0405 8.13649 25.2327 -3.48773 -179.853 -2.41513 0.259611 4.54188e-006 -4.6773e-006 -1.17703 -1.89307 -10.2933 0.129461 -3.27435e-006 -2.08825e-006 -0.157211 19.4289 68.9699 -20.3461 -8.13649 25.2327 3.48774 
54.1305 84.3626 3.51201 1.25323 -9.06081 0.957524 0.234303 -0.794888 0.084055 0.472537 2.41332 0.151863 0.471188 4.05836 0.143325 -9.17555 13.6639 -0.127688 11.2798 2.55411 -2.62811 68.0888 1.89784 -0.0514112 110.176 16.3874 -10.5108 5.56597e-015 9.54166e-015 4.77083e-015 -3.64832 -0.0275543 -1.99249 1.66627e-007 -8.31561e-007 -3.01161 8.03009 -4.9514 0.697638 -70.4488 -1.24831 1.90576 -112.601 16.9424 11.9564 3.9815e-006 1.45052e-006 2.88809e-007 3.63755 -0.0288877 1.99263 2.77723e-006 -5.32227e-006 3.0116 -8.03009 -4.95138 -0.697626 177.331 -1.65121 4.62802 -180 7.01524e-015 178.829 177.014 11.9839 179.929 3.74321e-006 7.72164e-007 0.186922 -20.1226 69.6671 21.0389 8.13649 25.2327 -3.48773 -179.854 -2.4532 0.259653 4.54188e-006 -4.6773e-006 -1.17686 -1.88999 -10.28 0.129944 -3.27435e-006 -2.08825e-006 -0.156942 19.4267 68.9675 -20.3438 -8.13649 25.2327 3.48774 
54.1267 84.3623 3.51902 1.25389 -9.08641 0.947243 0.23251 -0.788347 0.0840026 0.469272 2.4264 0.15189 0.46792 4.07144 0.143446 -9.152 13.6458 -0.127574 11.2502 2.5667 -2.6215 68.1323 1.91354 -0.0492078 110.147 16.4105 -10.4915 1.11319e-014 6.36111e-015 4.77083e-015 -3.64832 -0.0275543 -1.99249 1.66627e-007 -8.31561e-007 -3.01161 8.03009 -4.9514 0.697638 -70.4425 -1.25685 1.90974 -112.581 16.9453 11.9384 3.9815e-006 1.45052e-006 2.88809e-007 3.63755 -0.0288877 1.99263 2.77723e-006 -5.32227e-006 3.0116 -8.03009 -4.95138 -0.697626 177.331 -1.67835 4.62995 -180 7.01524e-015 178.828 177.016 11.9826 179.928 3.74321e-006 7.72164e-007 0.186968 -20.1203 69.6648 21.0365 8.13649 25.2327 -3.48773 -179.856 -2.4885 0.260381 4.54188e-006 -4.6773e-006 -1.17673 -1.88615 -10.2699 0.130544 -3.27435e-006 -2.08825e-006 -0.156785 19.4258 68.9666 -20.3429 -8.13649 25.2327 3.48774 
